# AST/ASF file generated using VICON BodyLanguage
# -----------------------------------------------
:version 1.10
:name VICON
:units
  mass 1.0
  length 0.45
  angle deg
:documentation
   .ast/.asf automatically generated from VICON data using
   VICON BodyBuilder and BodyLanguage model FoxedUp or BRILLIANT.MOD
:root
   order TX TY TZ RX RY RZ
   axis XYZ
   position 0 0 0  
   orientation 0 0 0 
:bonedata
  begin
     id 1 
     name lhipjoint
     direction 0.716248 -0.617586 0.324924 
     length 2.63557 
     axis 0 0 0  XYZ
  end
  begin
     id 2 
     name lfemur
     direction 0.34202 -0.939693 0  
     length 7.01235  
     axis 0 0 20  XYZ
    dof rx ry rz
    limits (-160.0 20.0)
           (-70.0 70.0)
           (-60.0 70.0)
  end
  begin
     id 3 
     name ltibia
     direction 0.34202 -0.939693 0   
     length 8.14348   
     axis 0 0 20   XYZ
    dof rx
    limits (-10.0 170.0)
  end
  begin
     id 4 
     name lfoot
     direction 0.0982064 -0.26982 0.95789   
     length 1.99077   
     axis -90 7.62852e-016 20   XYZ
    dof rx rz
    limits (-45.0 90.0)
           (-70.0 20.0)
  end
  begin
     id 5 
     name ltoes
     direction 1.53511e-011 -4.21891e-011 1   
     length 0.99735   
     axis -90 7.62852e-016 20   XYZ
    dof rx
    limits (-90.0 20.0)
  end
  begin
     id 6 
     name rhipjoint
     direction -0.687828 -0.642391 0.337975   
     length 2.5338  
     axis 0 0 0  XYZ 
  end
  begin
     id 7 
     name rfemur
     direction -0.34202 -0.939693 0   
     length 6.90199   
     axis 0 0 -20   XYZ
    dof rx ry rz
    limits (-160.0 20.0)
           (-70.0 70.0)
           (-70.0 60.0)
  end
  begin
     id 8 
     name rtibia
     direction -0.34202 -0.939693 0   
     length 8.07725   
     axis 0 0 -20   XYZ
    dof rx
    limits (-10.0 170.0)
 end
 begin
     id 9 
     name rfoot
     direction -0.0912384 -0.250675 0.963762   
     length 2.11621  
     axis -90 -7.62852e-016 -20   XYZ
    dof rx rz
    limits (-45.0 90.0)
           (-20.0 70.0)
  end
  begin
     id 10 
     name rtoes
     direction -1.5359e-011 -4.21894e-011 1   
     length 1.06031   
     axis -90 -7.62852e-016 -20   XYZ
    dof rx
    limits (-90.0 20.0)
  end
  begin
     id 11 
     name lowerback
     direction -0.0403572 0.987953 -0.149396   
     length 2.05637   
     axis 0 0 0   XYZ
    dof rx ry rz
    limits (-20.0 45.0)
           (-30.0 30.0)
           (-30.0 30.0)
  end
  begin
     id 12 
     name upperback
     direction -0.00512151 0.997598 0.0690792   
     length 2.01086   
     axis 0 0 0   XYZ
    dof rx ry rz
    limits (-20.0 45.0)
           (-30.0 30.0)
           (-30.0 30.0)
  end
  begin
     id 13 
     name thorax
     direction 0.0136133 0.989392 0.14463   
     length 2.09035   
     axis 0 0 0   XYZ
    dof rx ry rz
    limits (-20.0 45.0)
           (-30.0 30.0)
           (-30.0 30.0)
  end
  begin
     id 14 
     name lowerneck
     direction 0.0250714 0.992811 0.11704   
     length 1.70806   
     axis 0 0 0   XYZ
    dof rx ry rz
    limits (-20.0 45.0)
           (-30.0 30.0)
           (-30.0 30.0)
  end
  begin
     id 15 
     name upperneck
     direction -0.0519205 0.998394 -0.0226787   
     length 1.6689   
     axis 0 0 0   XYZ
    dof rx ry rz
    limits (-20.0 45.0)
           (-30.0 30.0)
           (-30.0 30.0)
  end
  begin
     id 16
     name head
     direction -0.0201693 0.999547 -0.0223192  
     length 1.83412  
     axis 0 0 0   XYZ
    dof rx ry rz
    limits (-20.0 45.0)
           (-30.0 30.0)
           (-30.0 30.0)
  end
  begin
     id 17 
     name lclavicle
     direction 0.89585 0.444077 -0.0157448  
     length 3.39587  
     axis 0 0 0   XYZ
    dof ry rz
    limits (-20.0 10.0)
           (0.0 20.0)
  end
  begin
     id 18 
     name lhumerus
     direction 1 -4.48956e-011 1.99132e-028   
     length 5.79199   
     axis 180 -30 -90   XYZ
    dof rx ry rz
    limits (-60.0 90.0)
           (-90.0 90.0)
           (-90.0 90.0)
  end
  begin
     id 19
     name lradius
     direction 1 -4.48974e-011 8.72912e-028   
     length 3.49908   
     axis 180 -30 -90   XYZ
    dof rx
    limits (-10.0 170.0)
  end
  begin
     id 20
     name lwrist
     direction 1 -4.48994e-011 4.76442e-027   
     length 1.74954   
     axis -3.27502e-015 90 90   XYZ
    dof ry
    limits (-180.0 0.0)
 end
  begin
     id 21 
     name lhand
     direction 1 -4.48945e-011 9.531e-027   
     length 0.593861   
     axis -6.08098e-015 90 90   XYZ
    dof rx rz
    limits (-90.0 90.0)
           (-45.0 45.0)
  end
  begin
     id 22 
     name lfingers
     direction 1 -4.48945e-011 1.9062e-026   
     length 0.478786   
     axis -1.21619e-014 90 90   XYZ
    dof rx
    limits (0.0 90.0)
  end
  begin
     id 23
     name lthumb
     direction 0.707107 -6.34904e-011 0.707107   
     length 0.687444   
     axis -90 45 -9.86923e-015   XYZ
    dof rx rz
    limits (-45.0 45.0)
           (-45.0 45.0)
  end
  begin
     id 24 
     name rclavicle
     direction -0.940466 0.338394 0.0318182   
     length 3.51226  
     axis 0 0 0   XYZ 
    dof ry rz
    limits (-10.0 20.0)
           (-20.0 0.0)
  end
  begin
     id 25 
     name rhumerus
     direction -1 -4.48976e-011 2.0905e-027  
     length 5.73799   
     axis 180 30 90   XYZ
    dof rx ry rz
    limits (-90.0 60.0)
           (-90.0 90.0)
           (-90.0 90.0)
  end
  begin
     id 26 
     name rradius
     direction -1 -4.48968e-011 -9.39692e-029   
     length 3.57916   
     axis 180 30 90   XYZ
    dof rx
    limits (-10.0 170.0)
  end
  begin
     id 27 
     name rwrist
     direction -1 -4.48959e-011 4.7652e-027   
     length 1.78958   
     axis -3.27502e-015 -90 -90   XYZ
    dof ry
    limits (-180.0 0.0)
  end
  begin
     id 28
     name rhand
     direction -1 -4.49042e-011 9.5267e-027   
     length 0.615577   
     axis -6.08098e-015 -90 -90   XYZ
    dof rx rz
    limits (-90.0 90.0)
           (-45.0 45.0)
  end
  begin
     id 29
     name rfingers
     direction -1 -4.48935e-011 1.90629e-026   
     length 0.496294   
     axis -1.21619e-014 -90 -90   XYZ
    dof rx
    limits (0.0 90.0)
  end
  begin
     id 30
     name rthumb
     direction -0.707107 -6.34977e-011 0.707107   
     length 0.712582   
     axis -90 -45 9.86923e-015   XYZ
    dof rx rz
    limits (-45.0 45.0)
           (-45.0 45.0)
  end
:hierarchy
  begin
    root lhipjoint rhipjoint lowerback
    lhipjoint lfemur
    lfemur ltibia
    ltibia lfoot
    lfoot ltoes
    rhipjoint rfemur
    rfemur rtibia
    rtibia rfoot
    rfoot rtoes
    lowerback upperback
    upperback thorax
    thorax lowerneck lclavicle rclavicle
    lowerneck upperneck
    upperneck head
    lclavicle lhumerus
    lhumerus lradius
    lradius lwrist
    lwrist lhand lthumb
    lhand lfingers
    rclavicle rhumerus
    rhumerus rradius
    rradius rwrist
    rwrist rhand rthumb
    rhand rfingers
  end

#!OML:ASF H:\Terrain\Patient Classification 1\PaulMetrics\March17Take5\PaulMetrics.ASF
:FULLY-SPECIFIED
:DEGREES
1603
root 14.8259 17.5425 -15.1964 0.290591 -58.5054 8.35112
lowerback 0.998807 0.870629 -7.16287
upperback -2.77069 0.884865 -1.50812
thorax -3.52357 0.600244 2.41368
lowerneck -7.06546 1.55587 3.10414
upperneck 5.77376 2.10782 -4.73301
head 3.22373 0.931607 -2.00559
rclavicle -4.78823e-014 -3.37934e-015
rhumerus -38.8454 26.7805 -87.3915
rradius 90.8967
rwrist -18.7964
rhand -20.7617 -25.0291
rfingers 7.12502
rthumb 5.60443 -54.935
lclavicle -4.78823e-014 -3.37934e-015
lhumerus -32.1419 -0.367382 79.6187
lradius 33.6481
lwrist 15.5387
lhand -8.92522 -20.0487
lfingers 7.12502
lthumb 17.0184 9.22579
rfemur -7.87423 12.7287 12.6262
rtibia 18.6031
rfoot -18.3102 -28.0336
rtoes -7.15786
lfemur -15.2673 -4.50384 -16.2321
ltibia 21.6191
lfoot -14.6327 12.2845
ltoes -4.11633
1604
root 14.8295 17.5382 -15.1933 0.413021 -58.4538 8.09223
lowerback 1.22568 0.895703 -6.89709
upperback -2.85699 0.900587 -1.52926
thorax -3.73709 0.60861 2.23861
lowerneck -6.63219 1.65912 3.01486
upperneck 5.49843 2.24356 -4.56802
head 3.04668 1.00995 -1.92401
rclavicle -8.95773e-015 -1.21259e-014
rhumerus -39.8442 27.1168 -88.3864
rradius 90.1851
rwrist -19.009
rhand -22.087 -24.4556
rfingers 7.12502
rthumb 4.32479 -54.3914
lclavicle -8.95773e-015 -1.21259e-014
lhumerus -32.2332 -0.620314 79.638
lradius 33.7929
lwrist 15.8719
lhand -7.74136 -19.2789
lfingers 7.12502
lthumb 18.1577 9.89358
rfemur -7.7301 12.5862 12.8242
rtibia 18.5489
rfoot -18.1957 -28.2383
rtoes -8.42234
lfemur -15.2796 -4.48918 -16.1309
ltibia 21.7301
lfoot -14.9312 12.4374
ltoes -4.35609
1605
root 14.8294 17.5423 -15.1911 0.18241 -58.3914 8.36308
lowerback 1.22099 0.915905 -6.93023
upperback -2.87199 0.921035 -1.63704
thorax -3.75101 0.618002 2.14431
lowerneck -6.34939 1.71623 2.87683
upperneck 5.1841 2.31487 -4.3558
head 2.88121 1.05522 -1.82212
rclavicle 5.23425e-014 3.43897e-014
rhumerus -40.5413 27.3519 -89.2395
rradius 89.3078
rwrist -19.0625
rhand -20.5235 -25.0552
rfingers 7.12502
rthumb 5.83443 -54.9549
lclavicle 5.23425e-014 3.43897e-014
lhumerus -32.1561 -0.581175 79.6176
lradius 33.8393
lwrist 15.7231
lhand -7.66358 -19.0288
lfingers 7.12502
lthumb 18.2325 10.1367
rfemur -7.62209 12.5723 12.6755
rtibia 18.4046
rfoot -18.3151 -28.309
rtoes -7.88012
lfemur -15.3908 -4.46691 -16.3165
ltibia 21.905
lfoot -15.5272 12.1664
ltoes -1.38981
1606
root 14.8284 17.541 -15.1862 -0.0423316 -58.2915 8.59731
lowerback 1.14838 0.881935 -7.0033
upperback -2.84127 0.87961 -1.68174
thorax -3.67503 0.595605 2.14221
lowerneck -6.29882 1.74401 2.71082
upperneck 5.10383 2.36096 -4.28877
head 2.84138 1.07793 -1.76716
rclavicle 6.62947e-014 -2.38542e-014
rhumerus -41.3795 27.7528 -90.0227
rradius 88.4569
rwrist -18.9638
rhand -20.2577 -24.8337
rfingers 7.12502
rthumb 6.091 -54.7261
lclavicle 6.62947e-014 -2.38542e-014
lhumerus -32.0936 -0.307649 79.6683
lradius 33.8297
lwrist 15.404
lhand -8.81958 -19.5649
lfingers 7.12502
lthumb 17.1201 9.70084
rfemur -7.46616 12.4832 12.5447
rtibia 18.2296
rfoot -18.2658 -28.2473
rtoes -7.05151
lfemur -15.448 -4.42635 -16.4831
ltibia 22.0608
lfoot -14.5616 12.1007
ltoes -8.6258
1607
root 14.8295 17.5375 -15.1806 0.117768 -58.2116 8.38122
lowerback 1.17709 0.788496 -6.92184
upperback -2.89607 0.757185 -1.55718
thorax -3.73749 0.537984 2.23058
lowerneck -6.25704 1.83134 2.66701
upperneck 5.25002 2.49896 -4.48487
head 2.89231 1.13771 -1.81927
rclavicle 5.46409e-014 1.03368e-014
rhumerus -42.3634 28.5456 -90.8559
rradius 87.6378
rwrist -19.1462
rhand -21.3661 -24.792
rfingers 7.12502
rthumb 5.02081 -54.7126
lclavicle 5.46409e-014 1.03368e-014
lhumerus -32.2729 0.028107 79.7873
lradius 33.8955
lwrist 15.0835
lhand -10.8869 -20.4892
lfingers 7.12502
lthumb 15.1295 8.93782
rfemur -7.3098 12.4578 12.6499
rtibia 18.0298
rfoot -18.6106 -28.2783
rtoes -6.61167
lfemur -15.5157 -4.43935 -16.3755
ltibia 22.22
lfoot -14.0877 12.0981
ltoes -11.5413
1608
root 14.8277 17.5448 -15.1736 0.932999 -58.2062 7.54247
lowerback 1.0164 0.671778 -6.56379
upperback -2.96897 0.633297 -1.30454
thorax -3.70703 0.472069 2.29971
lowerneck -6.0948 1.91503 2.64696
upperneck 5.20034 2.62503 -4.66863
head 2.85401 1.19538 -1.87107
rclavicle 1.1973e-013 2.127e-014
rhumerus -42.9103 29.3863 -91.6948
rradius 86.6121
rwrist -19.5949
rhand -22.4217 -25.5202
rfingers 7.12502
rthumb 4.00156 -55.4624
lclavicle 1.1973e-013 2.127e-014
lhumerus -32.4537 0.504925 79.8374
lradius 34.0039
lwrist 14.899
lhand -10.7577 -20.0684
lfingers 7.12502
lthumb 15.2539 9.34916
rfemur -7.2742 12.3394 13.1119
rtibia 17.8055
rfoot -17.9822 -28.5155
rtoes -9.45614
lfemur -15.7014 -4.31467 -15.9093
ltibia 22.403
lfoot -14.615 11.9752
ltoes -10.2432
1609
root 14.8258 17.5499 -15.1693 1.58491 -58.2399 6.83404
lowerback 0.889865 0.624303 -6.23012
upperback -3.02172 0.594473 -1.13379
thorax -3.68246 0.447049 2.29298
lowerneck -5.89705 1.90976 2.51792
upperneck 5.05429 2.62635 -4.6645
head 2.76443 1.19689 -1.8457
rclavicle 7.06245e-014 2.10712e-014
rhumerus -43.3996 29.6199 -92.4714
rradius 85.5576
rwrist -19.7708
rhand -23.5186 -26.6984
rfingers 7.12502
rthumb 2.9423 -56.6579
lclavicle 7.06245e-014 2.10712e-014
lhumerus -32.5203 0.969342 79.8137
lradius 33.9858
lwrist 14.6346
lhand -9.80931 -19.3641
lfingers 7.12502
lthumb 16.1673 9.98168
rfemur -7.21081 12.2574 13.5141
rtibia 17.6305
rfoot -17.5517 -28.5421
rtoes -10.4649
lfemur -15.8077 -4.15593 -15.5195
ltibia 22.5495
lfoot -14.897 11.9137
ltoes -12.7592
1610
root 14.828 17.5415 -15.1704 1.10078 -58.2606 7.27898
lowerback 0.98041 0.648964 -6.46683
upperback -3.03197 0.60986 -1.19275
thorax -3.74978 0.462238 2.36224
lowerneck -5.75336 1.91826 2.65198
upperneck 5.03451 2.63811 -4.83134
head 2.7383 1.20169 -1.92516
rclavicle 1.963e-014 -2.10712e-014
rhumerus -44.0771 29.5293 -93.1297
rradius 84.6377
rwrist -19.7819
rhand -20.5155 -24.7613
rfingers 7.12502
rthumb 5.84216 -54.6607
lclavicle 1.963e-014 -2.10712e-014
lhumerus -32.5507 0.910699 79.868
lradius 33.9631
lwrist 14.6036
lhand -10.0323 -19.4578
lfingers 7.12502
lthumb 15.9525 9.90523
rfemur -7.08942 12.3159 13.2567
rtibia 17.5946
rfoot -17.9942 -28.4135
rtoes -8.67694
lfemur -15.7052 -4.28458 -15.7619
ltibia 22.5848
lfoot -14.5034 12.1665
ltoes -22.3851
1611
root 14.8299 17.5392 -15.1725 0.790971 -58.2895 7.70698
lowerback 0.888076 0.627142 -6.73797
upperback -3.04173 0.57703 -1.24168
thorax -3.70934 0.451402 2.46503
lowerneck -5.58846 1.9822 2.73306
upperneck 4.82137 2.71484 -4.87042
head 2.6417 1.24413 -1.94847
rclavicle 2.40902e-014 3.43897e-014
rhumerus -44.5055 29.5581 -93.6006
rradius 83.4907
rwrist -19.3553
rhand -19.3441 -22.9987
rfingers 7.12502
rthumb 6.973 -52.8638
lclavicle 2.40902e-014 3.43897e-014
lhumerus -32.6524 0.586048 79.9912
lradius 34.2187
lwrist 15.0215
lhand -10.4829 -19.4966
lfingers 7.12502
lthumb 15.5186 9.90066
rfemur -7.24603 12.4257 12.9765
rtibia 17.7123
rfoot -18.1414 -28.4089
rtoes -8.21313
lfemur -15.7395 -4.2697 -15.9894
ltibia 22.5213
lfoot -16.1429 11.0246
ltoes 9.93569
